:SAMPLES-PER-SECOND 30
:FULLY-SPECIFIED
:DEGREES
241
root  -7.709310937 36.84066712 0.8304955452 1.785003662 -27.6190033 -2.005004883
lowerback  11.49470043 -0.8633720279 -2.970050097
upperback  2.916610003 -1.496199965 0.5449159741
thorax  -3.300699949 -0.7382419705 2.452260017
lowerneck  -3.58100009 2.817869902 -6.277530193
upperneck  9.401370049 3.963550091 2.557749987
head  3.514509916 1.832499981 2.114490032
lclavicle  0 -9.442270133e-015 7.951389973e-016
lhumerus  -1.981930017 -14.50129986 89.01229858
lradius  2.6323281e-031 -2.353655202e-031 138.1990051
lwrist  -1.412450015e-030 1.765562519e-031 15.80150032
lhand  -1.496451383e-031 -27.76390076 20.11240005
lfingers  90 7.125020027 -90
lthumb  89.89689403 5.08795885 91.16245106
rclavicle  0 -9.442270133e-015 7.951389973e-016
rhumerus  -30.35320091 28.24029922 -94.47290039
rradius  -2.478117293e-031 2.515507646e-031 134.5709991
rwrist  7.062250077e-031 -3.531125038e-031 3.290990114
rhand  -7.920061211e-032 -33.2840004 9.303460121
rfingers  -90 -7.125020027 -90
rthumb  -92.93752616 -24.25625642 -97.11982154
rfemur  -12.63710022 20.68470001 6.597919941
rtibia  -0 0 57.85589981
rfoot  -0 -25.18289948 -12.95790005
rtoes  5.373923086 19.29304026 -105.8922705
lfemur  -19.1439991 -1.190140009 -7.595399857
ltibia  -0 0 65.16110229
lfoot  6.337982606e-032 -29.48010063 1.598520041
ltoes  -4.250644065 -19.5611806 -102.515957
242
root  -7.737622299 37.07555636 0.8847911527 1.354995728 -25.38499451 -1.367004395
lowerback  11.80010033 -0.6895750165 -3.585659981
upperback  2.581130028 -1.343219995 0.6982240081
thorax  -3.809649944 -0.6406360269 2.95133996
lowerneck  -3.249979973 2.386640072 -6.912519932
upperneck  9.902669907 3.3629601 3.013890028
head  3.646239996 1.519459963 2.368030071
lclavicle  0 -9.442270133e-015 7.951389973e-016
lhumerus  -1.576589942 -15.84829998 89.9776001
lradius  2.588671609e-031 -2.40158767e-031 137.1470032
lwrist  0 -0 16.20420074
lhand  -1.496451383e-031 -27.76390076 20.11240005
lfingers  90 7.125020027 -90
lthumb  89.89689403 5.08795885 91.16245106
rclavicle  0 -9.442270133e-015 7.951389973e-016
rhumerus  -30.27179909 27.86730003 -93.86720276
rradius  -2.500975252e-031 2.492782948e-031 135.0939941
rwrist  7.062250077e-031 -3.531125038e-031 2.537830114
rhand  -7.920061211e-032 -33.2840004 9.303460121
rfingers  -90 -7.125020027 -90
rthumb  -92.93752616 -24.25625642 -97.11982154
rfemur  -12.51790047 19.89649963 6.391349792
rtibia  -0 0 59.21879959
rfoot  -0 -22.22540092 -12.57839966
rtoes  5.373923086 19.29304026 -105.8922705
lfemur  -18.51580048 -2.686039925 -7.912919998
ltibia  -0 0 63.0021019
lfoot  6.331483663e-032 -29.37590027 0.9438920021
ltoes  -4.250644065 -19.5611806 -102.515957
243
root  -7.77740028 37.32088945 0.9311733283 1.182006836 -22.98100281 -0.9279937744
lowerback  11.72700024 -0.5537210107 -3.927150011
upperback  2.398220062 -1.200129986 0.722958982
thorax  -3.96371007 -0.5583130121 3.150500059
lowerneck  -2.830749989 1.959429979 -7.141940117
upperneck  10.19900036 2.735909939 3.407469988
head  3.701630116 1.209259987 2.521140099
lclavicle  0 -9.442270133e-015 7.951389973e-016
lhumerus  -0.9515699744 -17.26840019 90.55879974
lradius  2.540506623e-031 -2.452482444e-031 136.0099945
lwrist  -7.062250077e-031 -0 16.61160088
lhand  -1.496451383e-031 -27.76390076 20.11240005
lfingers  90 7.125020027 -90
lthumb  89.89689403 5.08795885 91.16245106
rclavicle  0 -9.442270133e-015 7.951389973e-016
rhumerus  -30.06520081 27.22540092 -93.21589661
rradius  -2.528276633e-031 2.465088498e-031 135.7250061
rwrist  3.531125038e-031 -7.062250077e-031 1.554579973
rhand  -7.920061211e-032 -33.2840004 9.303460121
rfingers  -90 -7.125020027 -90
rthumb  -92.93752616 -24.25625642 -97.11982154
rfemur  -12.72840023 19.04610062 6.309909821
rtibia  -0 0 60.7140007
rfoot  -0 -18.56279945 -12.22169971
rtoes  5.373923086 19.29304026 -105.8922705
lfemur  -18.0571003 -4.116680145 -7.928709984
ltibia  -0 0 60.7016983
lfoot  5.677517385e-032 -29.00049973 -0.6886969805
ltoes  -4.250644065 -19.5611806 -102.515957
244
root  -7.829799802 37.55910979 0.9702533249 1.132995605 -20.52400208 -0.5420074463
lowerback  10.64280033 -0.5690400004 -3.710050106
upperback  2.843580008 -1.161329985 0.2600699961
thorax  -2.919450045 -0.5712900162 2.509910107
lowerneck  -2.783030033 1.569219947 -6.877799988
upperneck  10.08839989 2.139230013 4.004290104
head  3.688339949 0.9517840147 2.6552701
lclavicle  0 -9.442270133e-015 7.951389973e-016
lhumerus  0.7436079979 -18.65660095 89.8993988
lradius  2.48867606e-031 -2.505061976e-031 134.8119965
lwrist  -7.062250077e-031 -8.827812596e-032 16.99640083
lhand  -1.496451383e-031 -27.76390076 20.11240005
lfingers  90 7.125020027 -90
lthumb  89.89689403 5.08795885 91.16245106
rclavicle  0 -9.442270133e-015 7.951389973e-016
rhumerus  -28.78019905 26.43580055 -92.77420044
rradius  -2.550544167e-031 2.442041869e-031 136.2449951
rwrist  1.059337512e-030 -0 0.790019989
rhand  -7.920061211e-032 -33.2840004 9.303460121
rfingers  -90 -7.125020027 -90
rthumb  -92.93752616 -24.25625642 -97.11982154
rfemur  -13.21619987 18.22380066 6.220049858
rtibia  -0 0 62.3125
rfoot  -0 -14.08710003 -11.97459984
rtoes  5.373923086 19.29304026 -105.8922705
lfemur  -17.67770004 -5.365359783 -7.807330132
ltibia  -0 0 58.2779007
lfoot  5.0100543e-032 -28.23559952 -2.986819983
ltoes  -4.250644065 -19.5611806 -102.515957
245
root  -7.897044355 37.79822222 1.020355581 0.9499969482 -18.06599426 0.1210021973
lowerback  10.85630035 -0.3859910071 -4.42429018
upperback  2.461129904 -1.011019945 0.2474659979
thorax  -3.432780027 -0.4730859995 2.888530016
lowerneck  -2.365629911 1.113199949 -7.509449959
upperneck  10.6239996 1.462589979 4.689939976
head  3.843060017 0.6085860133 2.994379997
lclavicle  0 -9.442270133e-015 7.951389973e-016
lhumerus  0.9385390282 -19.87730026 90.53579712
lradius  2.442798447e-031 -2.549819559e-031 133.7720032
lwrist  -1.412450015e-030 -0 16.74449921
lhand  -1.496451383e-031 -27.76390076 20.11240005
lfingers  90 7.125020027 -90
lthumb  89.89689403 5.08795885 91.16245106
rclavicle  0 -9.442270133e-015 7.951389973e-016
rhumerus  -28.88400078 25.88260078 -91.9835968
rradius  -2.577788941e-031 2.413265052e-031 136.8880005
rwrist  1.059337512e-030 -3.531125038e-031 0.3941580057
rhand  -7.920061211e-032 -33.2840004 9.303460121
rfingers  -90 -7.125020027 -90
rthumb  -92.93752616 -24.25625642 -97.11982154
rfemur  -13.65810013 17.45120049 5.837959766
rtibia  -0 0 63.96239853
rfoot  -0 -9.002109528 -11.33240032
rtoes  5.373923086 19.29304026 -105.8922705
lfemur  -17.16220093 -6.431079865 -8.002090454
ltibia  -0 0 55.73889923
lfoot  4.966151912e-032 -27.27739906 -5.356170177
ltoes  -4.250644065 -19.5611806 -102.515957
246
root  -7.971799655 38.05311008 1.090373298 0.68699646 -15.46499634 0.9640045166
lowerback  11.04959965 -0.2210019976 -5.271070004
upperback  2.204780102 -0.9080799818 0.1284479946
thorax  -3.80343008 -0.3988539875 3.2339499
lowerneck  -1.965139985 0.6170300245 -8.228719711
upperneck  11.35560036 0.6750349998 5.76872015
head  3.647700071 0.2469010055 3.137510061
lclavicle  0 -9.442270133e-015 7.951389973e-016
lhumerus  1.337890029 -20.98419952 90.92870331
lradius  2.395617259e-031 -2.594197754e-031 132.720993
lwrist  0 -1.765562519e-031 16.38599968
lhand  -1.496451383e-031 -27.76390076 20.11240005
lfingers  90 7.125020027 -90
lthumb  89.89689403 5.08795885 91.16245106
rclavicle  0 -9.442270133e-015 7.951389973e-016
rhumerus  -28.61650085 25.18910027 -90.98349762
rradius  -2.601668723e-031 2.3875016e-031 137.4579926
rwrist  7.062250077e-031 -0 0.02662619948
rhand  -7.920061211e-032 -33.2840004 9.303460121
rfingers  -90 -7.125020027 -90
rthumb  -92.93752616 -24.25625642 -97.11982154
rfemur  -13.94690037 16.59869957 5.277929783
rtibia  -0 0 65.61910248
rfoot  -0 -3.967600107 -9.851570129
rtoes  5.373923086 19.29304026 -105.8922705
lfemur  -16.5897007 -7.293839931 -8.481780052
ltibia  -0 0 53.18230057
lfoot  -0 -25.83440018 -7.652009964
ltoes  -4.250644065 -19.5611806 -102.515957
247
root  -8.055244656 38.30400001 1.145646704 0.6009979248 -12.74099731 1.748001099
lowerback  10.65810013 -0.1424089968 -5.803649902
upperback  2.380970001 -0.8477339745 -0.2553830147
thorax  -3.405519962 -0.3796019852 3.116300106
lowerneck  -2.041539907 0.09569340199 -8.617210388
upperneck  11.62290001 -0.1047030017 6.733920097
head  3.791610003 -0.1098849997 3.477109909
lclavicle  0 -9.442270133e-015 7.951389973e-016
lhumerus  2.681159973 -22.02639961 90.37349701
lradius  2.346525522e-031 -2.63868566e-031 131.6459961
lwrist  -7.062250077e-031 -0 16.45059967
lhand  -1.496451383e-031 -27.76390076 20.11240005
lfingers  90 7.125020027 -90
lthumb  89.89689403 5.08795885 91.16245106
rclavicle  0 -9.442270133e-015 7.951389973e-016
rhumerus  -27.58679962 24.19409943 -89.88790131
rradius  -2.627639948e-031 2.358887945e-031 138.0850067
rwrist  7.062250077e-031 -0 -0.4741309881
rhand  -7.920061211e-032 -33.2840004 9.303460121
rfingers  -90 -7.125020027 -90
rthumb  -92.93752616 -24.25625642 -97.11982154
rfemur  -14.43099976 15.70349979 4.774390221
rtibia  -0 0 67.32060242
rfoot  -0 0.5133979917 -7.757510185
rtoes  5.373923086 19.29304026 -105.8922705
lfemur  -16.2961998 -7.830989838 -8.898360252
ltibia  -0 0 50.75590134
lfoot  -0 -23.79140091 -10.12450027
ltoes  -4.250644065 -19.5611806 -102.515957
248
root  -8.148821883 38.53955607 1.179759991 0.8739929199 -9.962005615 2.218002319
lowerback  10.25800037 -0.08984149992 -6.176859856
upperback  2.440180063 -0.7925789952 -0.4469799995
thorax  -3.124540091 -0.3586660028 3.112730026
lowerneck  -2.09533 -0.3818700016 -9.300060272
upperneck  11.92020035 -0.8296260238 7.822110176
head  3.947999954 -0.445205003 3.906689882
lclavicle  0 -9.442270133e-015 7.951389973e-016
lhumerus  3.982680082 -22.93540001 89.89369965
lradius  2.301379402e-031 -2.678151767e-031 130.6730042
lwrist  -7.062250077e-031 -0 16.87560081
lhand  -1.496451383e-031 -27.76390076 20.11240005
lfingers  90 7.125020027 -90
lthumb  89.89689403 5.08795885 91.16245106
rclavicle  0 -9.442270133e-015 7.951389973e-016
rhumerus  -26.69619942 23.22410011 -88.46769714
rradius  -2.659994485e-031 2.322342218e-031 138.8769989
rwrist  7.062250077e-031 -0 -1.044630051
rhand  -7.920061211e-032 -33.2840004 9.303460121
rfingers  -90 -7.125020027 -90
rthumb  -92.93752616 -24.25625642 -97.11982154
rfemur  -15.33950043 14.76949978 4.597030163
rtibia  -0 0 69.05329895
rfoot  -4.425583027e-032 4.163020134 -4.752099991
rtoes  5.373923086 19.29304026 -105.8922705
lfemur  -16.46969986 -8.052280426 -8.918439865
ltibia  -0 0 48.59820175
lfoot  -0 -21.78420067 -12.2524004
ltoes  -4.250644065 -19.5611806 -102.515957
249
root  -8.249866305 38.74955665 1.208020008 1.229995728 -7.164993286 2.625
lowerback  9.963529587 -0.08313090354 -6.446350098
upperback  2.450089931 -0.7939890027 -0.6608819962
thorax  -2.949970007 -0.3625510037 3.036900043
lowerneck  -1.939720035 -0.827410996 -9.892080307
upperneck  12.00860023 -1.51888001 8.799380302
head  4.014790058 -0.7663289905 4.286650181
lclavicle  0 -9.442270133e-015 7.951389973e-016
lhumerus  5.108019829 -23.73679924 89.33860016
lradius  2.261774579e-031 -2.711682096e-031 129.8309937
lwrist  -7.062250077e-031 -0 17.7390995
lhand  -1.496451383e-031 -27.76390076 20.11240005
lfingers  90 7.125020027 -90
lthumb  89.89689403 5.08795885 91.16245106
rclavicle  0 -9.442270133e-015 7.951389973e-016
rhumerus  -26.69619942 23.22410011 -88.46769714
rradius  -2.659994485e-031 2.322342218e-031 138.8769989
rwrist  7.062250077e-031 -0 -1.044630051
rhand  -7.920061211e-032 -33.2840004 9.303460121
rfingers  -90 -7.125020027 -90
rthumb  -92.93752616 -24.25625642 -97.11982154
rfemur  -16.35420036 13.86639977 4.506939888
rtibia  -0 0 70.73680115
rfoot  -4.445609497e-032 6.846710205 -0.4460789859
rtoes  5.373923086 19.29304026 -105.8922705
lfemur  -16.82290077 -8.135120392 -8.905309677
ltibia  -0 0 46.7804985
lfoot  -0 -20.32010078 -13.60849953
ltoes  -4.250644065 -19.5611806 -102.515957
